<mxfile host="app.diagrams.net" agent="Mozilla/5.0 (Windows NT 10.0; Win64; x64) AppleWebKit/537.36 (KHTML, like Gecko) Chrome/111.0.0.0 Safari/537.36" version="27.0.4">
  <diagram id="s9QtPAElUWJQrzNiy2O-" name="第 1 页">
    <mxGraphModel dx="2137" dy="923" grid="0" gridSize="10" guides="1" tooltips="1" connect="1" arrows="1" fold="1" page="0" pageScale="1" pageWidth="1169" pageHeight="827" math="0" shadow="0">
      <root>
        <mxCell id="0" />
        <mxCell id="1" parent="0" />
        <mxCell id="5fbsEI-NGeyjSIloz2Gn-23" value="" style="shape=table;html=1;whiteSpace=wrap;startSize=0;container=1;collapsible=0;childLayout=tableLayout;" parent="1" vertex="1">
          <mxGeometry x="445" y="2491" width="240" height="340" as="geometry" />
        </mxCell>
        <mxCell id="5fbsEI-NGeyjSIloz2Gn-24" value="" style="shape=partialRectangle;html=1;whiteSpace=wrap;collapsible=0;dropTarget=0;pointerEvents=0;fillColor=none;top=0;left=0;bottom=0;right=0;points=[[0,0.5],[1,0.5]];portConstraint=eastwest;" parent="5fbsEI-NGeyjSIloz2Gn-23" vertex="1">
          <mxGeometry width="240" height="85" as="geometry" />
        </mxCell>
        <mxCell id="5fbsEI-NGeyjSIloz2Gn-25" value="" style="shape=partialRectangle;html=1;whiteSpace=wrap;connectable=0;overflow=hidden;fillColor=#ffe6cc;top=0;left=0;bottom=0;right=0;strokeColor=#d79b00;" parent="5fbsEI-NGeyjSIloz2Gn-24" vertex="1">
          <mxGeometry width="120" height="85" as="geometry">
            <mxRectangle width="120" height="85" as="alternateBounds" />
          </mxGeometry>
        </mxCell>
        <mxCell id="5fbsEI-NGeyjSIloz2Gn-26" value="" style="shape=partialRectangle;html=1;whiteSpace=wrap;connectable=0;overflow=hidden;fillColor=#ffe6cc;top=0;left=0;bottom=0;right=0;strokeColor=#d79b00;" parent="5fbsEI-NGeyjSIloz2Gn-24" vertex="1">
          <mxGeometry x="120" width="120" height="85" as="geometry">
            <mxRectangle width="120" height="85" as="alternateBounds" />
          </mxGeometry>
        </mxCell>
        <mxCell id="5fbsEI-NGeyjSIloz2Gn-27" value="" style="shape=partialRectangle;html=1;whiteSpace=wrap;collapsible=0;dropTarget=0;pointerEvents=0;fillColor=none;top=0;left=0;bottom=0;right=0;points=[[0,0.5],[1,0.5]];portConstraint=eastwest;" parent="5fbsEI-NGeyjSIloz2Gn-23" vertex="1">
          <mxGeometry y="85" width="240" height="85" as="geometry" />
        </mxCell>
        <mxCell id="5fbsEI-NGeyjSIloz2Gn-28" value="" style="shape=partialRectangle;html=1;whiteSpace=wrap;connectable=0;overflow=hidden;fillColor=#eeeeee;top=0;left=0;bottom=0;right=0;strokeColor=#36393d;" parent="5fbsEI-NGeyjSIloz2Gn-27" vertex="1">
          <mxGeometry width="120" height="85" as="geometry">
            <mxRectangle width="120" height="85" as="alternateBounds" />
          </mxGeometry>
        </mxCell>
        <mxCell id="5fbsEI-NGeyjSIloz2Gn-29" value="" style="shape=partialRectangle;html=1;whiteSpace=wrap;connectable=0;overflow=hidden;fillColor=none;top=0;left=0;bottom=0;right=0;" parent="5fbsEI-NGeyjSIloz2Gn-27" vertex="1">
          <mxGeometry x="120" width="120" height="85" as="geometry">
            <mxRectangle width="120" height="85" as="alternateBounds" />
          </mxGeometry>
        </mxCell>
        <mxCell id="5fbsEI-NGeyjSIloz2Gn-30" value="" style="shape=partialRectangle;html=1;whiteSpace=wrap;collapsible=0;dropTarget=0;pointerEvents=0;fillColor=none;top=0;left=0;bottom=0;right=0;points=[[0,0.5],[1,0.5]];portConstraint=eastwest;" parent="5fbsEI-NGeyjSIloz2Gn-23" vertex="1">
          <mxGeometry y="170" width="240" height="85" as="geometry" />
        </mxCell>
        <mxCell id="5fbsEI-NGeyjSIloz2Gn-31" value="" style="shape=partialRectangle;html=1;whiteSpace=wrap;connectable=0;overflow=hidden;fillColor=#eeeeee;top=0;left=0;bottom=0;right=0;strokeColor=#36393d;" parent="5fbsEI-NGeyjSIloz2Gn-30" vertex="1">
          <mxGeometry width="120" height="85" as="geometry">
            <mxRectangle width="120" height="85" as="alternateBounds" />
          </mxGeometry>
        </mxCell>
        <mxCell id="5fbsEI-NGeyjSIloz2Gn-32" value="" style="shape=partialRectangle;html=1;whiteSpace=wrap;connectable=0;overflow=hidden;fillColor=none;top=0;left=0;bottom=0;right=0;" parent="5fbsEI-NGeyjSIloz2Gn-30" vertex="1">
          <mxGeometry x="120" width="120" height="85" as="geometry">
            <mxRectangle width="120" height="85" as="alternateBounds" />
          </mxGeometry>
        </mxCell>
        <mxCell id="5fbsEI-NGeyjSIloz2Gn-33" value="" style="shape=partialRectangle;html=1;whiteSpace=wrap;collapsible=0;dropTarget=0;pointerEvents=0;fillColor=none;top=0;left=0;bottom=0;right=0;points=[[0,0.5],[1,0.5]];portConstraint=eastwest;" parent="5fbsEI-NGeyjSIloz2Gn-23" vertex="1">
          <mxGeometry y="255" width="240" height="85" as="geometry" />
        </mxCell>
        <mxCell id="5fbsEI-NGeyjSIloz2Gn-34" value=". . ." style="shape=partialRectangle;html=1;whiteSpace=wrap;connectable=0;overflow=hidden;fillColor=#eeeeee;top=0;left=0;bottom=0;right=0;strokeColor=#36393d;fontSize=35;fontStyle=1" parent="5fbsEI-NGeyjSIloz2Gn-33" vertex="1">
          <mxGeometry width="120" height="85" as="geometry">
            <mxRectangle width="120" height="85" as="alternateBounds" />
          </mxGeometry>
        </mxCell>
        <mxCell id="5fbsEI-NGeyjSIloz2Gn-35" value=". . ." style="shape=partialRectangle;html=1;whiteSpace=wrap;connectable=0;overflow=hidden;fillColor=none;top=0;left=0;bottom=0;right=0;fontSize=35;fontStyle=1" parent="5fbsEI-NGeyjSIloz2Gn-33" vertex="1">
          <mxGeometry x="120" width="120" height="85" as="geometry">
            <mxRectangle width="120" height="85" as="alternateBounds" />
          </mxGeometry>
        </mxCell>
        <mxCell id="5fbsEI-NGeyjSIloz2Gn-40" value="" style="shape=table;html=1;whiteSpace=wrap;startSize=0;container=1;collapsible=0;childLayout=tableLayout;" parent="1" vertex="1">
          <mxGeometry x="798" y="2516" width="240" height="270" as="geometry" />
        </mxCell>
        <mxCell id="5fbsEI-NGeyjSIloz2Gn-41" value="" style="shape=partialRectangle;html=1;whiteSpace=wrap;collapsible=0;dropTarget=0;pointerEvents=0;fillColor=none;top=0;left=0;bottom=0;right=0;points=[[0,0.5],[1,0.5]];portConstraint=eastwest;" parent="5fbsEI-NGeyjSIloz2Gn-40" vertex="1">
          <mxGeometry width="240" height="68" as="geometry" />
        </mxCell>
        <mxCell id="5fbsEI-NGeyjSIloz2Gn-42" value="" style="shape=partialRectangle;html=1;whiteSpace=wrap;connectable=0;overflow=hidden;fillColor=#f8cecc;top=0;left=0;bottom=0;right=0;strokeColor=#b85450;" parent="5fbsEI-NGeyjSIloz2Gn-41" vertex="1">
          <mxGeometry width="120" height="68" as="geometry" />
        </mxCell>
        <mxCell id="5fbsEI-NGeyjSIloz2Gn-43" value="" style="shape=partialRectangle;html=1;whiteSpace=wrap;connectable=0;overflow=hidden;fillColor=#f8cecc;top=0;left=0;bottom=0;right=0;strokeColor=#b85450;" parent="5fbsEI-NGeyjSIloz2Gn-41" vertex="1">
          <mxGeometry x="120" width="120" height="68" as="geometry" />
        </mxCell>
        <mxCell id="5fbsEI-NGeyjSIloz2Gn-44" value="" style="shape=partialRectangle;html=1;whiteSpace=wrap;collapsible=0;dropTarget=0;pointerEvents=0;fillColor=none;top=0;left=0;bottom=0;right=0;points=[[0,0.5],[1,0.5]];portConstraint=eastwest;" parent="5fbsEI-NGeyjSIloz2Gn-40" vertex="1">
          <mxGeometry y="68" width="240" height="67" as="geometry" />
        </mxCell>
        <mxCell id="5fbsEI-NGeyjSIloz2Gn-45" value="" style="shape=partialRectangle;html=1;whiteSpace=wrap;connectable=0;overflow=hidden;fillColor=#eeeeee;top=0;left=0;bottom=0;right=0;strokeColor=#36393d;" parent="5fbsEI-NGeyjSIloz2Gn-44" vertex="1">
          <mxGeometry width="120" height="67" as="geometry" />
        </mxCell>
        <mxCell id="5fbsEI-NGeyjSIloz2Gn-46" value="" style="shape=partialRectangle;html=1;whiteSpace=wrap;connectable=0;overflow=hidden;fillColor=none;top=0;left=0;bottom=0;right=0;" parent="5fbsEI-NGeyjSIloz2Gn-44" vertex="1">
          <mxGeometry x="120" width="120" height="67" as="geometry" />
        </mxCell>
        <mxCell id="5fbsEI-NGeyjSIloz2Gn-47" value="" style="shape=partialRectangle;html=1;whiteSpace=wrap;collapsible=0;dropTarget=0;pointerEvents=0;fillColor=none;top=0;left=0;bottom=0;right=0;points=[[0,0.5],[1,0.5]];portConstraint=eastwest;" parent="5fbsEI-NGeyjSIloz2Gn-40" vertex="1">
          <mxGeometry y="135" width="240" height="68" as="geometry" />
        </mxCell>
        <mxCell id="5fbsEI-NGeyjSIloz2Gn-48" value="" style="shape=partialRectangle;html=1;whiteSpace=wrap;connectable=0;overflow=hidden;fillColor=#eeeeee;top=0;left=0;bottom=0;right=0;strokeColor=#36393d;" parent="5fbsEI-NGeyjSIloz2Gn-47" vertex="1">
          <mxGeometry width="120" height="68" as="geometry" />
        </mxCell>
        <mxCell id="5fbsEI-NGeyjSIloz2Gn-49" value="" style="shape=partialRectangle;html=1;whiteSpace=wrap;connectable=0;overflow=hidden;fillColor=none;top=0;left=0;bottom=0;right=0;" parent="5fbsEI-NGeyjSIloz2Gn-47" vertex="1">
          <mxGeometry x="120" width="120" height="68" as="geometry" />
        </mxCell>
        <mxCell id="5fbsEI-NGeyjSIloz2Gn-50" value="" style="shape=partialRectangle;html=1;whiteSpace=wrap;collapsible=0;dropTarget=0;pointerEvents=0;fillColor=none;top=0;left=0;bottom=0;right=0;points=[[0,0.5],[1,0.5]];portConstraint=eastwest;" parent="5fbsEI-NGeyjSIloz2Gn-40" vertex="1">
          <mxGeometry y="203" width="240" height="67" as="geometry" />
        </mxCell>
        <mxCell id="5fbsEI-NGeyjSIloz2Gn-51" value=". . ." style="shape=partialRectangle;html=1;whiteSpace=wrap;connectable=0;overflow=hidden;fillColor=#eeeeee;top=0;left=0;bottom=0;right=0;strokeColor=#36393d;fontSize=35;fontStyle=1" parent="5fbsEI-NGeyjSIloz2Gn-50" vertex="1">
          <mxGeometry width="120" height="67" as="geometry" />
        </mxCell>
        <mxCell id="5fbsEI-NGeyjSIloz2Gn-52" value=". . ." style="shape=partialRectangle;html=1;whiteSpace=wrap;connectable=0;overflow=hidden;fillColor=none;top=0;left=0;bottom=0;right=0;fontSize=35;fontStyle=1" parent="5fbsEI-NGeyjSIloz2Gn-50" vertex="1">
          <mxGeometry x="120" width="120" height="67" as="geometry" />
        </mxCell>
        <mxCell id="5fbsEI-NGeyjSIloz2Gn-36" style="edgeStyle=none;rounded=0;orthogonalLoop=1;jettySize=auto;html=1;exitX=1;exitY=0.5;exitDx=0;exitDy=0;entryX=0;entryY=0.5;entryDx=0;entryDy=0;strokeWidth=2;fontSize=27;fontColor=#000000;" parent="1" target="5fbsEI-NGeyjSIloz2Gn-30" edge="1">
          <mxGeometry relative="1" as="geometry">
            <mxPoint x="384" y="2661" as="sourcePoint" />
          </mxGeometry>
        </mxCell>
        <mxCell id="5fbsEI-NGeyjSIloz2Gn-37" value="一级页号" style="text;strokeColor=none;fillColor=none;html=1;fontSize=27;fontStyle=1;verticalAlign=middle;align=center;rounded=1;" parent="1" vertex="1">
          <mxGeometry x="455" y="2512" width="100" height="50" as="geometry" />
        </mxCell>
        <mxCell id="5fbsEI-NGeyjSIloz2Gn-38" value="二级页表&lt;br style=&quot;font-size: 27px;&quot;&gt;地址" style="text;strokeColor=none;fillColor=none;html=1;fontSize=27;fontStyle=1;verticalAlign=middle;align=center;rounded=1;" parent="1" vertex="1">
          <mxGeometry x="555" y="2512" width="140" height="60" as="geometry" />
        </mxCell>
        <mxCell id="5fbsEI-NGeyjSIloz2Gn-39" value="Adr" style="text;strokeColor=none;fillColor=none;html=1;fontSize=27;fontStyle=1;verticalAlign=middle;align=center;rounded=1;" parent="1" vertex="1">
          <mxGeometry x="585" y="2682" width="50" height="50" as="geometry" />
        </mxCell>
        <mxCell id="5fbsEI-NGeyjSIloz2Gn-1" value="" style="image;html=1;image=img/lib/clip_art/computers/Fujitsu_Tablet_128x128.png;fontSize=20;fontColor=#FF2E4A;" parent="1" vertex="1">
          <mxGeometry x="490" y="230" width="190" height="190" as="geometry" />
        </mxCell>
        <mxCell id="5fbsEI-NGeyjSIloz2Gn-2" value="&lt;font style=&quot;font-size: 18px&quot;&gt;JVM&lt;/font&gt;" style="text;strokeColor=#b85450;fillColor=#f8cecc;html=1;fontSize=18;fontStyle=1;verticalAlign=middle;align=center;rounded=1;shadow=1;sketch=0;glass=1;" parent="1" vertex="1">
          <mxGeometry x="510" y="272" width="100" height="50" as="geometry" />
        </mxCell>
        <mxCell id="5fbsEI-NGeyjSIloz2Gn-3" value="" style="shape=note;whiteSpace=wrap;html=1;backgroundOutline=1;darkOpacity=0.05;fillColor=#f5f5f5;strokeColor=#666666;fontColor=#333333;" parent="1" vertex="1">
          <mxGeometry x="530" y="450" width="80" height="100" as="geometry" />
        </mxCell>
        <mxCell id="5fbsEI-NGeyjSIloz2Gn-4" value="&lt;font style=&quot;font-size: 18px;&quot;&gt;__.class&lt;/font&gt;" style="text;strokeColor=none;fillColor=none;html=1;fontSize=18;fontStyle=1;verticalAlign=middle;align=center;" parent="1" vertex="1">
          <mxGeometry x="535" y="510" width="70" height="40" as="geometry" />
        </mxCell>
        <mxCell id="5fbsEI-NGeyjSIloz2Gn-5" value="" style="image;html=1;image=img/lib/clip_art/computers/Database_128x128.png" parent="1" vertex="1">
          <mxGeometry x="520" y="640.0000000000005" width="110" height="140" as="geometry" />
        </mxCell>
        <mxCell id="5fbsEI-NGeyjSIloz2Gn-6" value="MySQL" style="text;strokeColor=#d6b656;fillColor=#fff2cc;html=1;fontSize=24;fontStyle=1;verticalAlign=middle;align=center;" parent="1" vertex="1">
          <mxGeometry x="525" y="600.0000000000005" width="100" height="40" as="geometry" />
        </mxCell>
        <mxCell id="5fbsEI-NGeyjSIloz2Gn-7" value="Title" style="text;strokeColor=none;fillColor=none;html=1;fontSize=24;fontStyle=1;verticalAlign=middle;align=center;" parent="1" vertex="1">
          <mxGeometry x="525" y="810" width="100" height="40" as="geometry" />
        </mxCell>
        <mxCell id="5fbsEI-NGeyjSIloz2Gn-8" value="" style="group" parent="1" vertex="1" connectable="0">
          <mxGeometry x="450" y="903" width="280" height="200" as="geometry" />
        </mxCell>
        <mxCell id="5fbsEI-NGeyjSIloz2Gn-9" value="" style="rounded=1;whiteSpace=wrap;html=1;strokeWidth=2;" parent="5fbsEI-NGeyjSIloz2Gn-8" vertex="1">
          <mxGeometry width="280" height="200" as="geometry" />
        </mxCell>
        <mxCell id="5fbsEI-NGeyjSIloz2Gn-10" value="Title" style="text;strokeColor=none;fillColor=none;html=1;fontSize=24;fontStyle=1;verticalAlign=middle;align=center;" parent="5fbsEI-NGeyjSIloz2Gn-8" vertex="1">
          <mxGeometry width="100" height="40" as="geometry" />
        </mxCell>
        <mxCell id="5fbsEI-NGeyjSIloz2Gn-11" value="" style="group" parent="1" vertex="1" connectable="0">
          <mxGeometry x="159" y="1166" width="860" height="390" as="geometry" />
        </mxCell>
        <mxCell id="5fbsEI-NGeyjSIloz2Gn-12" value="" style="rounded=0;whiteSpace=wrap;html=1;fillColor=#f9f7ed;strokeColor=#36393d;strokeWidth=2;" parent="5fbsEI-NGeyjSIloz2Gn-11" vertex="1">
          <mxGeometry width="860" height="390" as="geometry" />
        </mxCell>
        <mxCell id="5fbsEI-NGeyjSIloz2Gn-13" value="服务器端" style="text;strokeColor=none;fillColor=none;html=1;fontSize=24;fontStyle=1;verticalAlign=middle;align=center;" parent="5fbsEI-NGeyjSIloz2Gn-11" vertex="1">
          <mxGeometry width="100" height="40" as="geometry" />
        </mxCell>
        <mxCell id="5fbsEI-NGeyjSIloz2Gn-14" value="" style="shape=crossbar;whiteSpace=wrap;html=1;rounded=1;fillColor=#ffffff;" parent="1" vertex="1">
          <mxGeometry x="159" y="1673" width="850" height="70" as="geometry" />
        </mxCell>
        <mxCell id="5fbsEI-NGeyjSIloz2Gn-15" value="" style="group" parent="1" vertex="1" connectable="0">
          <mxGeometry x="358" y="1782" width="440" height="420" as="geometry" />
        </mxCell>
        <mxCell id="5fbsEI-NGeyjSIloz2Gn-16" value="" style="text;html=1;fontSize=24;fontStyle=1;verticalAlign=middle;align=center;rounded=1;fillColor=#b0e3e6;strokeColor=#0e8088;" parent="5fbsEI-NGeyjSIloz2Gn-15" vertex="1">
          <mxGeometry y="40" width="440" height="380" as="geometry" />
        </mxCell>
        <mxCell id="5fbsEI-NGeyjSIloz2Gn-17" value="CPU" style="text;strokeColor=none;fillColor=none;html=1;fontSize=30;fontStyle=1;verticalAlign=middle;align=center;rounded=1;" parent="5fbsEI-NGeyjSIloz2Gn-15" vertex="1">
          <mxGeometry x="170" width="100" height="40" as="geometry" />
        </mxCell>
        <mxCell id="5fbsEI-NGeyjSIloz2Gn-18" value="Calculator&amp;nbsp; 运算器" style="text;strokeColor=#56517e;fillColor=#d0cee2;html=1;fontSize=25;fontStyle=1;verticalAlign=middle;align=center;rounded=1;" parent="5fbsEI-NGeyjSIloz2Gn-15" vertex="1">
          <mxGeometry x="20" y="60" width="380" height="100" as="geometry" />
        </mxCell>
        <mxCell id="5fbsEI-NGeyjSIloz2Gn-19" value="Controller 控制器" style="text;strokeColor=#56517e;fillColor=#d0cee2;html=1;fontSize=25;fontStyle=1;verticalAlign=middle;align=center;rounded=1;" parent="5fbsEI-NGeyjSIloz2Gn-15" vertex="1">
          <mxGeometry x="20" y="180" width="380" height="100" as="geometry" />
        </mxCell>
        <mxCell id="5fbsEI-NGeyjSIloz2Gn-20" value="MMU" style="text;strokeColor=#36393d;fillColor=#cdeb8b;html=1;fontSize=24;fontStyle=1;verticalAlign=top;align=left;rounded=1;horizontal=1;" parent="5fbsEI-NGeyjSIloz2Gn-15" vertex="1">
          <mxGeometry x="20" y="300" width="380" height="98" as="geometry" />
        </mxCell>
        <mxCell id="5fbsEI-NGeyjSIloz2Gn-21" value="PTR&lt;br&gt;页表寄存器" style="text;strokeColor=#36393d;fillColor=#cce5ff;html=1;fontSize=24;fontStyle=1;verticalAlign=middle;align=center;rounded=0;" parent="5fbsEI-NGeyjSIloz2Gn-15" vertex="1">
          <mxGeometry x="110" y="310" width="260" height="80" as="geometry" />
        </mxCell>
        <mxCell id="5fbsEI-NGeyjSIloz2Gn-22" value="+" style="ellipse;whiteSpace=wrap;html=1;aspect=fixed;rounded=0;strokeWidth=3;fillColor=#ffffff;fontSize=75;fontColor=#000000;align=center;fontStyle=0" parent="1" vertex="1">
          <mxGeometry x="510" y="2280" width="80" height="80" as="geometry" />
        </mxCell>
        <mxCell id="5fbsEI-NGeyjSIloz2Gn-53" value="二级页号" style="text;strokeColor=none;fillColor=none;html=1;fontSize=27;fontStyle=1;verticalAlign=middle;align=center;rounded=1;" parent="1" vertex="1">
          <mxGeometry x="808" y="2526" width="100" height="50" as="geometry" />
        </mxCell>
        <mxCell id="5fbsEI-NGeyjSIloz2Gn-54" value="物理页号" style="text;strokeColor=none;fillColor=none;html=1;fontSize=27;fontStyle=1;verticalAlign=middle;align=center;rounded=1;" parent="1" vertex="1">
          <mxGeometry x="908" y="2521" width="140" height="60" as="geometry" />
        </mxCell>
        <mxCell id="5fbsEI-NGeyjSIloz2Gn-55" value="" style="group" parent="1" vertex="1" connectable="0">
          <mxGeometry x="181" y="2904" width="850" height="190" as="geometry" />
        </mxCell>
        <mxCell id="5fbsEI-NGeyjSIloz2Gn-56" value="" style="text;strokeColor=#36393d;html=1;fontSize=24;fontStyle=1;verticalAlign=middle;align=center;fillColor=#f9f7ed;rounded=1;" parent="5fbsEI-NGeyjSIloz2Gn-55" vertex="1">
          <mxGeometry y="78" width="850" height="60" as="geometry" />
        </mxCell>
        <mxCell id="5fbsEI-NGeyjSIloz2Gn-57" value="逻辑地址 (Virtual Address)---32位" style="text;strokeColor=none;fillColor=none;html=1;fontSize=25;fontStyle=1;verticalAlign=middle;align=center;rounded=1;" parent="5fbsEI-NGeyjSIloz2Gn-55" vertex="1">
          <mxGeometry x="270" width="300" height="40" as="geometry" />
        </mxCell>
        <mxCell id="5fbsEI-NGeyjSIloz2Gn-58" value="" style="shape=crossbar;whiteSpace=wrap;html=1;rounded=1;fillColor=#ffffff;" parent="5fbsEI-NGeyjSIloz2Gn-55" vertex="1">
          <mxGeometry y="10" width="850" height="70" as="geometry" />
        </mxCell>
        <mxCell id="5fbsEI-NGeyjSIloz2Gn-59" value="一级页号" style="text;strokeColor=#36393d;fillColor=#eeeeee;html=1;fontSize=24;fontStyle=1;verticalAlign=middle;align=center;rounded=1;" parent="5fbsEI-NGeyjSIloz2Gn-55" vertex="1">
          <mxGeometry y="78" width="270" height="62" as="geometry" />
        </mxCell>
        <mxCell id="5fbsEI-NGeyjSIloz2Gn-60" value="二级页号" style="text;strokeColor=#666666;fillColor=#f5f5f5;html=1;fontSize=24;fontStyle=1;verticalAlign=middle;align=center;rounded=1;" parent="5fbsEI-NGeyjSIloz2Gn-55" vertex="1">
          <mxGeometry x="270" y="78" width="290" height="62" as="geometry" />
        </mxCell>
        <mxCell id="5fbsEI-NGeyjSIloz2Gn-61" value="页面偏移量(OFFSET)" style="text;strokeColor=#36393d;fillColor=#f9f7ed;html=1;fontSize=24;fontStyle=1;verticalAlign=middle;align=center;rounded=1;" parent="5fbsEI-NGeyjSIloz2Gn-55" vertex="1">
          <mxGeometry x="560" y="78" width="290" height="62" as="geometry" />
        </mxCell>
        <mxCell id="5fbsEI-NGeyjSIloz2Gn-62" value="" style="shape=crossbar;whiteSpace=wrap;html=1;rounded=1;fillColor=#ffffff;" parent="5fbsEI-NGeyjSIloz2Gn-55" vertex="1">
          <mxGeometry y="138" width="270" height="42" as="geometry" />
        </mxCell>
        <mxCell id="5fbsEI-NGeyjSIloz2Gn-63" value="" style="shape=crossbar;whiteSpace=wrap;html=1;rounded=1;fillColor=#ffffff;" parent="5fbsEI-NGeyjSIloz2Gn-55" vertex="1">
          <mxGeometry x="270" y="138" width="290" height="40" as="geometry" />
        </mxCell>
        <mxCell id="5fbsEI-NGeyjSIloz2Gn-64" value="" style="shape=crossbar;whiteSpace=wrap;html=1;rounded=1;fillColor=#ffffff;" parent="5fbsEI-NGeyjSIloz2Gn-55" vertex="1">
          <mxGeometry x="560" y="140" width="290" height="34" as="geometry" />
        </mxCell>
        <mxCell id="5fbsEI-NGeyjSIloz2Gn-65" value="10 bits" style="text;strokeColor=none;fillColor=none;html=1;fontSize=24;fontStyle=1;verticalAlign=middle;align=center;rounded=0;" parent="5fbsEI-NGeyjSIloz2Gn-55" vertex="1">
          <mxGeometry x="80" y="150" width="100" height="40" as="geometry" />
        </mxCell>
        <mxCell id="5fbsEI-NGeyjSIloz2Gn-66" value="10 bits" style="text;strokeColor=none;fillColor=none;html=1;fontSize=24;fontStyle=1;verticalAlign=middle;align=center;rounded=0;" parent="5fbsEI-NGeyjSIloz2Gn-55" vertex="1">
          <mxGeometry x="375" y="150" width="100" height="40" as="geometry" />
        </mxCell>
        <mxCell id="5fbsEI-NGeyjSIloz2Gn-67" value="12 bits" style="text;strokeColor=none;fillColor=none;html=1;fontSize=24;fontStyle=1;verticalAlign=middle;align=center;rounded=0;" parent="5fbsEI-NGeyjSIloz2Gn-55" vertex="1">
          <mxGeometry x="680" y="150" width="100" height="40" as="geometry" />
        </mxCell>
        <mxCell id="5fbsEI-NGeyjSIloz2Gn-68" value="卡码笔记：notes.kamacoder.com" style="text;strokeColor=none;fillColor=none;html=1;fontSize=30;fontStyle=1;verticalAlign=middle;align=center;rounded=0;shadow=1;sketch=0;rotation=0;" parent="1" vertex="1">
          <mxGeometry x="202" y="3186" width="518" height="75" as="geometry" />
        </mxCell>
        <mxCell id="5fbsEI-NGeyjSIloz2Gn-69" value="卡码笔记" style="text;strokeColor=none;fillColor=none;html=1;fontSize=35;fontStyle=1;verticalAlign=middle;align=center;rounded=0;shadow=1;sketch=0;rotation=-15;textOpacity=20;" parent="1" vertex="1">
          <mxGeometry x="439" y="3286" width="146" height="75" as="geometry" />
        </mxCell>
        <mxCell id="5fbsEI-NGeyjSIloz2Gn-70" value="卡码笔记" style="text;strokeColor=none;fillColor=none;html=1;fontSize=45;fontStyle=1;verticalAlign=middle;align=center;rounded=0;shadow=1;sketch=0;rotation=-15;textOpacity=20;" parent="1" vertex="1">
          <mxGeometry x="727" y="3275" width="146" height="75" as="geometry" />
        </mxCell>
        <mxCell id="5fbsEI-NGeyjSIloz2Gn-71" value="" style="text;fillColor=none;html=1;fontSize=24;fontStyle=1;verticalAlign=middle;align=center;shadow=1;strokeColor=#000000;dashed=1;opacity=50;rotation=-90;" parent="1" vertex="1">
          <mxGeometry x="272" y="3320" width="676" height="897" as="geometry" />
        </mxCell>
        <mxCell id="5fbsEI-NGeyjSIloz2Gn-72" value="" style="endArrow=classic;html=1;fontSize=30;strokeWidth=3;" parent="1" edge="1">
          <mxGeometry width="50" height="50" relative="1" as="geometry">
            <mxPoint x="680.25" y="4230" as="sourcePoint" />
            <mxPoint x="499.75" y="4230" as="targetPoint" />
          </mxGeometry>
        </mxCell>
        <mxCell id="5fbsEI-NGeyjSIloz2Gn-74" value="" style="line;strokeWidth=4;html=1;perimeter=backbonePerimeter;points=[];outlineConnect=0;shadow=1;fontSize=35;" parent="1" vertex="1">
          <mxGeometry x="-219" y="4396" width="1502" height="10" as="geometry" />
        </mxCell>
        <mxCell id="5fbsEI-NGeyjSIloz2Gn-75" value="" style="rounded=1;whiteSpace=wrap;html=1;strokeWidth=2;fillWeight=4;hachureGap=8;hachureAngle=45;fillColor=#1ba1e2;sketch=1;labelBackgroundColor=#ffffff;" parent="1" vertex="1">
          <mxGeometry x="-104" y="4741" width="1550" height="60" as="geometry" />
        </mxCell>
        <mxCell id="5fbsEI-NGeyjSIloz2Gn-76" value="一、操作系统概述" style="text;strokeColor=none;fillColor=none;html=1;fontSize=40;fontStyle=1;verticalAlign=middle;align=center;labelBackgroundColor=#ffffff;" parent="1" vertex="1">
          <mxGeometry x="-114" y="4671" width="370" height="40" as="geometry" />
        </mxCell>
        <mxCell id="FKe7qoMOvqlRmqya7M9T-1" value="" style="text;strokeColor=#36393d;fillColor=#f9f7ed;html=1;fontSize=35;fontStyle=1;verticalAlign=middle;align=center;rounded=1;" parent="1" vertex="1">
          <mxGeometry x="421.9999999999998" y="5016.43" width="492" height="72" as="geometry" />
        </mxCell>
        <mxCell id="FKe7qoMOvqlRmqya7M9T-2" value="141" style="text;strokeColor=#36393d;fillColor=#f9f7ed;html=1;fontSize=35;fontStyle=1;verticalAlign=middle;align=center;rounded=1;" parent="1" vertex="1">
          <mxGeometry x="642.9999999999998" y="5016.43" width="270.5" height="72" as="geometry" />
        </mxCell>
        <mxCell id="FKe7qoMOvqlRmqya7M9T-3" value="3" style="text;strokeColor=#666666;fillColor=#f5f5f5;html=1;fontSize=35;fontStyle=1;verticalAlign=middle;align=center;rounded=1;fontColor=#333333;" parent="1" vertex="1">
          <mxGeometry x="422.4999999999998" y="5016.43" width="220.5" height="72" as="geometry" />
        </mxCell>
        <mxCell id="FKe7qoMOvqlRmqya7M9T-4" value="逻辑地址" style="text;html=1;fontSize=35;fontStyle=1;verticalAlign=middle;align=center;rounded=1;gradientColor=#97d077;fillColor=#d5e8d4;strokeColor=#82b366;" parent="1" vertex="1">
          <mxGeometry x="253.99999999999977" y="5012.43" width="144.5" height="73" as="geometry" />
        </mxCell>
        <mxCell id="FKe7qoMOvqlRmqya7M9T-5" value="" style="shape=curlyBracket;whiteSpace=wrap;html=1;rounded=1;fontSize=35;rotation=-90;" parent="1" vertex="1">
          <mxGeometry x="516.2499999999998" y="4991.18" width="30.5" height="219" as="geometry" />
        </mxCell>
        <mxCell id="FKe7qoMOvqlRmqya7M9T-6" value="" style="shape=curlyBracket;whiteSpace=wrap;html=1;rounded=1;fontSize=35;rotation=-90;" parent="1" vertex="1">
          <mxGeometry x="762.1899999999998" y="4965" width="30.5" height="271.37" as="geometry" />
        </mxCell>
        <mxCell id="FKe7qoMOvqlRmqya7M9T-7" value="&amp;gt;" style="ellipse;whiteSpace=wrap;html=1;aspect=fixed;rounded=0;strokeWidth=3;fillColor=#ffffff;fontSize=75;fontColor=#000000;align=center;fontStyle=0" parent="1" vertex="1">
          <mxGeometry x="705.19" y="2296" width="57" height="57" as="geometry" />
        </mxCell>
      </root>
    </mxGraphModel>
  </diagram>
</mxfile>
